<?xml version="1.0" encoding="UTF-8" standalone="no"?>
<!-- Created with Inkscape (http://www.inkscape.org/) -->

<svg
   width="11.49291mm"
   height="11.209469mm"
   viewBox="0 0 11.49291 11.209469"
   version="1.1"
   id="svg1051"
   inkscape:version="1.1.1 (3bf5ae0d25, 2021-09-20)"
   sodipodi:docname="github_new.svg"
   xmlns:inkscape="http://www.inkscape.org/namespaces/inkscape"
   xmlns:sodipodi="http://sodipodi.sourceforge.net/DTD/sodipodi-0.dtd"
   xmlns="http://www.w3.org/2000/svg"
   xmlns:svg="http://www.w3.org/2000/svg">
  <sodipodi:namedview
     id="namedview1053"
     pagecolor="#ffffff"
     bordercolor="#666666"
     borderopacity="1.0"
     inkscape:pageshadow="2"
     inkscape:pageopacity="0.0"
     inkscape:pagecheckerboard="0"
     inkscape:document-units="mm"
     showgrid="false"
     fit-margin-top="0"
     fit-margin-left="0"
     fit-margin-right="0"
     fit-margin-bottom="0"
     inkscape:zoom="10.981958"
     inkscape:cx="20.988972"
     inkscape:cy="30.367992"
     inkscape:window-width="1852"
     inkscape:window-height="1016"
     inkscape:window-x="0"
     inkscape:window-y="0"
     inkscape:window-maximized="1"
     inkscape:current-layer="layer1" />
  <defs
     id="defs1048" />
  <g
     inkscape:label="Layer 1"
     inkscape:groupmode="layer"
     id="layer1"
     transform="translate(-102.94419,-109.36301)">
    <path
       d="m 108.69024,109.36301 c -3.17289,0 -5.74605,2.57281 -5.74605,5.74675 0,2.53859 1.64642,4.69265 3.92995,5.45289 0.28751,0.0526 0.39229,-0.12488 0.39229,-0.27728 0,-0.13653 -0.005,-0.49777 -0.008,-0.9772 -1.59844,0.34714 -1.9357,-0.77046 -1.9357,-0.77046 -0.2614,-0.66393 -0.63817,-0.84067 -0.63817,-0.84067 -0.52176,-0.35631 0.0395,-0.34925 0.0395,-0.34925 0.57679,0.0406 0.88018,0.59231 0.88018,0.59231 0.51259,0.87806 1.34514,0.62442 1.67252,0.47731 0.0522,-0.37112 0.20073,-0.62442 0.36477,-0.768 -1.27599,-0.14534 -2.61761,-0.63817 -2.61761,-2.84021 0,-0.6276 0.22402,-1.14018 0.59161,-1.542 -0.0593,-0.14534 -0.25647,-0.72954 0.0564,-1.52082 0,0 0.48225,-0.15452 1.5801,0.58879 0.45825,-0.12736 0.95003,-0.19086 1.43862,-0.19333 0.48825,0.002 0.97967,0.066 1.43863,0.19333 1.09714,-0.74331 1.57868,-0.58879 1.57868,-0.58879 0.31362,0.79128 0.11642,1.37548 0.0575,1.52082 0.3683,0.40182 0.59055,0.9144 0.59055,1.542 0,2.20768 -1.34374,2.69346 -2.62361,2.83562 0.20602,0.17745 0.38982,0.52811 0.38982,1.06434 0,0.76799 -0.007,1.38782 -0.007,1.57621 0,0.15381 0.10372,0.33267 0.39511,0.27657 2.28177,-0.76164 3.92677,-2.91394 3.92677,-5.45218 0,-3.17394 -2.57316,-5.74675 -5.7471,-5.74675"
       style="fill:#1b1817;fill-opacity:1;fill-rule:evenodd;stroke:none;stroke-width:0.0352778"
       id="path14" />
  </g>
</svg>
