<svg xml:space="preserve" width="542.652" height="542.667" xmlns="http://www.w3.org/2000/svg"><path style="fill:#1c4177;fill-opacity:1;fill-rule:nonzero;stroke:none;stroke-width:1.33333" d="M40.027 0C17.943 0 0 17.516 0 39.13v464.38c0 21.61 17.943 39.156 40.027 39.156H502.51c22.125 0 40.14-17.547 40.14-39.156V39.13C542.65 17.517 524.635 0 502.51 0H40.027zm80.68 74.709c25.75 0 46.652 20.912 46.652 46.672 0 25.77-20.901 46.681-46.652 46.681-25.848 0-46.691-20.91-46.691-46.681 0-25.76 20.843-46.672 46.691-46.672zm245.162 122.307c81.495 0 96.553 53.62 96.553 123.365v142.031h-80.475v-125.94c0-30.03-.52-68.665-41.822-68.665-41.88 0-48.27 32.734-48.27 66.515v128.09h-80.39V203.443h77.15v35.4h1.104c10.734-20.36 36.994-41.827 76.15-41.827zm-285.463 6.427h80.567v258.97H80.406v-258.97z"/></svg>