<?xml version="1.0" encoding="UTF-8" standalone="no"?>
<!-- Created with Inkscape (https://www.inkscape.org/) -->

<svg
   version="1.1"
   id="svg2"
   xml:space="preserve"
   width="542.65198"
   height="542.66663"
   viewBox="0 0 542.65198 542.66663"
   sodipodi:docname="linkedin.svg"
   inkscape:version="1.1.1 (3bf5ae0d25, 2021-09-20)"
   xmlns:inkscape="https://www.inkscape.org/namespaces/inkscape"
   xmlns:sodipodi="https://sodipodi.sourceforge.net/DTD/sodipodi-0.dtd"
   xmlns="https://www.w3.org/2000/svg"
   xmlns:svg="https://www.w3.org/2000/svg"><defs
     id="defs6" /><sodipodi:namedview
     id="namedview4"
     pagecolor="#ffffff"
     bordercolor="#666666"
     borderopacity="1.0"
     inkscape:pageshadow="2"
     inkscape:pageopacity="0.0"
     inkscape:pagecheckerboard="0"
     showgrid="false"
     inkscape:zoom="1.0188498"
     inkscape:cx="374.44184"
     inkscape:cy="309.66291"
     inkscape:window-width="1852"
     inkscape:window-height="1016"
     inkscape:window-x="0"
     inkscape:window-y="0"
     inkscape:window-maximized="1"
     inkscape:current-layer="g10" /><g
     id="g8"
     inkscape:groupmode="layer"
     inkscape:label="logo_linkedin"
     transform="matrix(1.3333333,0,0,1.3333333,0,1.8233332e-5)"><g
       id="g10"><path
         id="path12"
         style="fill:#1c4177;fill-opacity:1;fill-rule:nonzero;stroke:none;stroke-width:1.33333"
         d="M 40.027344 0 C 17.943344 0 4.7369516e-15 17.516193 0 39.130859 L 0 503.50977 C 0 525.1191 17.943344 542.66602 40.027344 542.66602 L 502.50977 542.66602 C 524.6351 542.66602 542.65039 525.1191 542.65039 503.50977 L 542.65039 39.130859 C 542.65039 17.516193 524.6351 -4.7369516e-15 502.50977 0 L 40.027344 0 z M 120.70703 74.708984 C 146.4577 74.708984 167.35937 95.620859 167.35938 121.38086 C 167.35938 147.15153 146.4577 168.0625 120.70703 168.0625 C 94.859033 168.0625 74.015625 147.15153 74.015625 121.38086 C 74.015625 95.620859 94.859033 74.708984 120.70703 74.708984 z M 365.86914 197.01562 C 447.36381 197.01562 462.42188 250.63686 462.42188 320.38086 L 462.42188 462.41211 L 381.94727 462.41211 L 381.94727 336.47266 C 381.94727 306.44199 381.42633 267.80664 340.125 267.80664 C 298.245 267.80664 291.85547 300.54093 291.85547 334.32227 L 291.85547 462.41211 L 211.46484 462.41211 L 211.46484 203.44336 L 288.61523 203.44336 L 288.61523 238.84375 L 289.71875 238.84375 C 300.45342 218.48375 326.71314 197.01562 365.86914 197.01562 z M 80.40625 203.44336 L 160.97266 203.44336 L 160.97266 462.41211 L 80.40625 462.41211 L 80.40625 203.44336 z "
         transform="matrix(0.75000002,0,0,0.75000002,0,-1.3674999e-5)" /></g></g></svg>
