<?xml version="1.0" encoding="UTF-8" standalone="no"?>
<!-- Created with Inkscape (http://www.inkscape.org/) -->

<svg
   width="135.46666mm"
   height="135.46666mm"
   viewBox="0 0 135.46666 135.46666"
   version="1.1"
   id="svg5"
   inkscape:version="1.1.2 (0a00cf5339, 2022-02-04)"
   sodipodi:docname="screenshot.svg"
   xmlns:inkscape="http://www.inkscape.org/namespaces/inkscape"
   xmlns:sodipodi="http://sodipodi.sourceforge.net/DTD/sodipodi-0.dtd"
   xmlns="http://www.w3.org/2000/svg"
   xmlns:svg="http://www.w3.org/2000/svg">
  <sodipodi:namedview
     id="namedview7"
     pagecolor="#ffffff"
     bordercolor="#666666"
     borderopacity="1.0"
     inkscape:pageshadow="2"
     inkscape:pageopacity="0"
     inkscape:pagecheckerboard="true"
     inkscape:document-units="mm"
     showgrid="false"
     fit-margin-top="0"
     fit-margin-left="0"
     fit-margin-right="0"
     fit-margin-bottom="0"
     inkscape:zoom="0.83394236"
     inkscape:cx="226.03481"
     inkscape:cy="323.16382"
     inkscape:window-width="1846"
     inkscape:window-height="1016"
     inkscape:window-x="74"
     inkscape:window-y="27"
     inkscape:window-maximized="1"
     inkscape:current-layer="layer1" />
  <defs
     id="defs2" />
  <g
     inkscape:label="Layer 1"
     inkscape:groupmode="layer"
     id="layer1"
     transform="translate(52.487765,-69.333978)">
    <path
       id="path854"
       style="fill:#000000;fill-opacity:1;stroke:#000000;stroke-width:0.999999;stroke-opacity:1"
       d="M 45 0 C 13.008646 0 11.631962 0.078105925 8.0039062 2.1171875 C 5.931357 3.2820266 3.2820266 5.931357 2.1171875 8.0039062 C 0.078105925 11.631962 0 13.008646 0 45 C 0 77.308407 0.059930128 78.334729 2.1835938 82.113281 C 5.4289493 87.887609 10.553529 90 21.316406 90 L 30 90 L 30 256 L 30 422 L 20.886719 422 C 10.116929 422 5.5123522 423.96301 2.1171875 430.00391 C 0.078105925 433.63195 0 435.00864 0 467 C 0 499.26001 0.063423086 500.34074 2.1738281 504.0957 C 3.5266949 506.50281 5.8868391 508.72465 8.4238281 509.98047 C 12.258922 511.87881 14.418463 511.99928 44.933594 512 C 75.640384 512.00076 77.596043 511.88984 81.625 509.93945 C 87.811263 506.94474 90 501.91076 90 490.68359 L 90 482 L 150.5 482 L 211 482 L 211 491.11328 C 211 502.28458 213.07175 506.88816 219.5 510 C 223.3708 511.87385 225.67477 512 256 512 C 286.63953 512 288.59667 511.88954 292.625 509.93945 C 298.81126 506.94474 301 501.91076 301 490.68359 L 301 482 L 361.5 482 L 422 482 L 422 491.11328 C 422 502.28458 424.07178 506.88816 430.5 510 C 434.37081 511.87385 436.67475 512 467 512 C 497.63953 512 499.5967 511.88954 503.625 509.93945 C 506.71469 508.44378 508.44374 506.71469 509.93945 503.625 C 511.88958 499.5967 512 497.63957 512 467 C 512 436.67481 511.87381 434.3708 510 430.5 C 506.88813 424.07174 502.28458 422 491.11328 422 L 482 422 L 482 256 L 482 90 L 490.68359 90 C 501.91076 90 506.94474 87.811263 509.93945 81.625 C 511.88958 77.596704 512 75.639545 512 45 C 512 14.674787 511.87381 12.370818 510 8.5 C 508.72532 5.866822 506.58997 3.5755597 504.11328 2.1835938 C 500.33474 0.059937687 499.30842 0 467 0 C 435.00862 0 433.63195 0.078105925 430.00391 2.1171875 C 423.96301 5.5123522 422 10.116929 422 20.886719 L 422 30 L 361.5 30 L 301 30 L 301 21.316406 C 301 10.553529 298.88761 5.4289493 293.11328 2.1835938 C 289.33474 0.059937687 288.30842 0 256 0 C 224.00864 0 222.63196 0.078105925 219.00391 2.1171875 C 212.96303 5.5123522 211 10.116929 211 20.886719 L 211 30 L 150.5 30 L 90 30 L 90 21.316406 C 90 10.553529 87.887609 5.4289493 82.113281 2.1835938 C 78.334729 0.059937687 77.308407 0 45 0 z M 30 30 L 45 30 L 60 30 L 60 45 L 60 60 L 45 60 L 30 60 L 30 45 L 30 30 z M 241 30 L 256 30 L 271 30 L 271 45 L 271 60 L 256 60 L 241 60 L 241 45 L 241 30 z M 452 30 L 467 30 L 482 30 L 482 45 L 482 60 L 467 60 L 452 60 L 452 45 L 452 30 z M 90 60 L 150.5 60 L 211 60 L 211 69.113281 C 211 80.284586 213.07175 84.888141 219.5 88 C 223.3708 89.873818 225.67477 90 256 90 C 286.63953 90 288.59667 89.889515 292.625 87.939453 C 298.81126 84.944733 301 79.910775 301 68.683594 L 301 60 L 361.5 60 L 422 60 L 422 69.113281 C 422 85.078573 427.02275 90 443.31641 90 L 452 90 L 452 256 L 452 422 L 442.88672 422 C 426.91462 422 422 426.91462 422 442.88672 L 422 452 L 361.5 452 L 301 452 L 301 443.31641 C 301 432.55352 298.88761 427.42896 293.11328 424.18359 C 289.33474 422.05999 288.30842 422 256 422 C 224.00864 422 222.63196 422.07809 219.00391 424.11719 C 212.96303 427.51237 211 432.11695 211 442.88672 L 211 452 L 150.5 452 L 90 452 L 90 443.31641 C 90 427.02275 85.078573 422 69.113281 422 L 60 422 L 60 256 L 60 90 L 68.683594 90 C 84.989696 90 90 84.989696 90 68.683594 L 90 60 z M 102.77148 121 L 99.003906 123.11719 C 96.931357 124.282 94.282027 126.93133 93.117188 129.00391 L 91 132.77148 L 91 256 L 91 379.22852 L 93.173828 383.0957 C 94.526699 385.50281 96.886835 387.72465 99.423828 388.98047 C 103.45822 390.97632 105.06615 390.99924 255.93359 391 C 406.32716 391.00079 408.42367 390.97333 412.5 389 C 415.13316 387.72532 417.42441 385.58997 418.81641 383.11328 L 421 379.22852 L 421 256.42969 C 421 135.67359 420.96683 133.56292 419 129.5 C 417.72528 126.86684 415.58997 124.57559 413.11328 123.18359 L 409.22852 121 L 256 121 L 102.77148 121 z M 121 151 L 256 151 L 391 151 L 391 245 C 391 296.70001 390.88474 339 390.74414 339 C 390.60343 339 376.09094 324.56907 358.49414 306.93164 C 340.89738 289.29421 324.82963 273.99422 322.78906 272.93164 C 318.25669 270.5717 313.52532 270.52152 309.37695 272.79102 C 307.65976 273.73045 296.69717 285.00164 285.01367 297.83594 C 273.33013 310.67019 263.43096 320.79519 263.01562 320.33594 C 262.60033 319.87665 249.6111 302.5999 234.15234 281.94531 C 204.7942 242.71964 203.19165 241 196 241 C 188.72203 241 187.40787 242.43922 153.84961 287.19922 C 136.20065 310.7394 121.59021 330 121.38086 330 C 121.17151 330 121 289.72502 121 240.5 L 121 151 z M 286.45508 166.20508 C 265.04714 165.9298 245.60519 181.77227 241.81836 203.85547 C 237.95209 226.40164 252.43128 248.30996 275.26367 254.45898 C 305.51826 262.60693 335.52732 235.02646 330.20117 203.9668 C 326.91646 184.812 312.23329 170.09139 293.14648 166.81836 C 290.90494 166.43398 288.66969 166.23355 286.45508 166.20508 z M 286.43945 196.07422 C 288.40787 196.12512 290.42037 196.58038 292.37891 197.50977 C 303.28496 202.68503 303.67179 218.55492 293.02539 223.98633 C 283.19329 229.00229 272.47161 223.37153 271.25195 212.55078 C 270.20126 203.22892 277.90963 195.85364 286.43945 196.07422 z M 196 282 C 196.41343 282 210.08506 299.77501 226.38086 321.5 L 256.00977 361 L 196 361 L 135.99023 361 L 165.61914 321.5 C 181.91493 299.77501 195.58657 282 196 282 z M 316.34961 307.86328 L 342.67383 334.17383 C 357.15286 348.64515 369 360.60083 369 360.74219 C 369 360.88354 352.00131 361 331.22461 361 L 293.44727 361 L 288.23633 354.03516 C 285.36941 350.20411 282.90572 346.66358 282.76172 346.16797 C 282.61791 345.67232 290.11538 336.85048 299.42383 326.56445 L 316.34961 307.86328 z M 30 452 L 45 452 L 60 452 L 60 467 L 60 482 L 45 482 L 30 482 L 30 467 L 30 452 z M 241 452 L 256 452 L 271 452 L 271 467 L 271 482 L 256 482 L 241 482 L 241 467 L 241 452 z M 452 452 L 467 452 L 482 452 L 482 467 L 482 482 L 467 482 L 452 482 L 452 467 L 452 452 z "
       transform="matrix(0.26458333,0,0,0.26458333,-52.487765,69.333978)" />
  </g>
</svg>
