<?xml version="1.0" encoding="UTF-8" standalone="no"?>
<!-- Created with Inkscape (http://www.inkscape.org/) -->

<svg
   width="135.467mm"
   height="135.467mm"
   viewBox="0 0 135.467 135.467"
   version="1.1"
   id="svg5"
   inkscape:version="1.1.1 (3bf5ae0d25, 2021-09-20)"
   sodipodi:docname="screenshot.svg"
   xmlns:inkscape="http://www.inkscape.org/namespaces/inkscape"
   xmlns:sodipodi="http://sodipodi.sourceforge.net/DTD/sodipodi-0.dtd"
   xmlns="http://www.w3.org/2000/svg"
   xmlns:svg="http://www.w3.org/2000/svg">
  <sodipodi:namedview
     id="namedview7"
     pagecolor="#ffffff"
     bordercolor="#666666"
     borderopacity="1.0"
     inkscape:pageshadow="2"
     inkscape:pageopacity="0.0"
     inkscape:pagecheckerboard="0"
     inkscape:document-units="mm"
     showgrid="false"
     fit-margin-top="0"
     fit-margin-left="0"
     fit-margin-right="0"
     fit-margin-bottom="0"
     inkscape:zoom="0.80087682"
     inkscape:cx="202.90261"
     inkscape:cy="330.26302"
     inkscape:window-width="1852"
     inkscape:window-height="1016"
     inkscape:window-x="0"
     inkscape:window-y="0"
     inkscape:window-maximized="1"
     inkscape:current-layer="layer1" />
  <defs
     id="defs2" />
  <g
     inkscape:label="Layer 1"
     inkscape:groupmode="layer"
     id="layer1"
     transform="translate(21.984135,-62.375847)">
    <path
       style="fill:#000000;stroke-width:0.264583"
       d="m -19.755362,197.30822 c -0.671245,-0.33227 -1.295699,-0.92029 -1.653645,-1.55717 -0.558378,-0.9935 -0.575128,-1.27934 -0.575128,-9.8148 0,-8.46438 0.02085,-8.82859 0.560357,-9.78851 0.898304,-1.59832 2.116264,-2.11773 4.965771,-2.11773 h 2.411372 V 130.10917 86.188346 h -2.297715 c -2.847678,0 -4.203244,-0.558778 -5.061911,-2.086569 -0.561886,-0.999742 -0.577874,-1.271415 -0.577874,-9.819681 0,-8.464379 0.02085,-8.82859 0.560357,-9.788513 0.308197,-0.548362 1.009017,-1.249182 1.557379,-1.557379 0.959923,-0.539507 1.324134,-0.560357 9.788513,-0.560357 8.5482661,0 8.8199391,0.01599 9.81968113,0.577874 1.52779097,0.858667 2.08656897,2.214233 2.08656897,5.061911 v 2.297715 H 17.835655 33.842946 v -2.411372 c 0,-2.849507 0.519419,-4.067467 2.117735,-4.965771 0.959923,-0.539507 1.324133,-0.560357 9.788513,-0.560357 8.54827,0 8.81994,0.01599 9.81968,0.577874 1.52779,0.858667 2.08657,2.214233 2.08657,5.061911 v 2.297715 h 16.00729 16.00729 v -2.411372 c 0,-2.849507 0.51942,-4.067467 2.11774,-4.965771 0.959921,-0.539507 1.324131,-0.560357 9.788516,-0.560357 8.54827,0 8.81994,0.01599 9.81968,0.577874 0.65529,0.368291 1.22012,0.97434 1.55738,1.671035 0.49578,1.024154 0.52919,1.633794 0.52919,9.65734 0,8.106713 -0.0291,8.624324 -0.54507,9.690144 -0.79235,1.636782 -2.12419,2.216106 -5.09471,2.216106 h -2.29772 v 43.920824 43.92084 h 2.41137 c 2.95574,0 4.17359,0.5481 4.99694,2.24891 0.49578,1.02415 0.52919,1.63379 0.52919,9.65733 0,8.10672 -0.0291,8.62433 -0.54507,9.69015 -0.39574,0.81748 -0.85355,1.2753 -1.67103,1.67103 -1.06582,0.51596 -1.58344,0.54507 -9.69015,0.54507 -8.023555,0 -8.633195,-0.0334 -9.657346,-0.52919 -1.7008,-0.82334 -2.24891,-2.04119 -2.24891,-4.99693 V 189.905 h -16.00729 -16.00729 v 2.29772 c 0,2.97052 -0.57932,4.30236 -2.2161,5.09471 -1.06583,0.51596 -1.58344,0.54507 -9.69015,0.54507 -8.02355,0 -8.63319,-0.0334 -9.657338,-0.52919 -1.700808,-0.82334 -2.24891,-2.04119 -2.24891,-4.99693 V 189.905 H 17.835655 1.8283641 v 2.29772 c 0,2.97052 -0.579324,4.30236 -2.21610597,5.09471 -1.06599503,0.51604 -1.58302803,0.54506 -9.70753313,0.54486 -8.073795,-1.9e-4 -8.645385,-0.0318 -9.660087,-0.53407 z m 13.6462261,-11.37197 v -3.96875 h -3.9687501 -3.968749 v 3.96875 3.96875 h 3.968749 3.9687501 z m 55.8270799,0 v -3.96875 h -3.96875 -3.96875 v 3.96875 3.96875 h 3.96875 3.96875 z m 55.827086,0 v -3.96875 h -3.96875 -3.968755 v 3.96875 3.96875 h 3.968755 3.96875 z m -71.702084,-6.38012 c 0,-2.8495 0.519419,-4.06746 2.117735,-4.96577 0.959923,-0.53951 1.324133,-0.56035 9.788513,-0.56035 8.54827,0 8.81994,0.016 9.81968,0.57787 1.52779,0.85867 2.08657,2.21423 2.08657,5.06191 v 2.29771 h 16.00729 16.00729 v -2.41137 c 0,-4.22595 1.30018,-5.52612 5.526131,-5.52612 h 2.41137 V 130.10917 86.188346 h -2.29771 c -4.311031,0 -5.639791,-1.301978 -5.639791,-5.526128 v -2.411372 h -16.00729 -16.00729 v 2.297715 c 0,2.970525 -0.57932,4.302362 -2.2161,5.094715 -1.06583,0.515954 -1.58344,0.54507 -9.69015,0.54507 -8.02355,0 -8.63319,-0.03341 -9.657338,-0.529191 -1.700808,-0.823346 -2.24891,-2.041196 -2.24891,-4.996937 V 78.250846 H 17.835655 1.8283641 v 2.297715 c 0,4.314323 -1.32546197,5.639785 -5.639785,5.639785 h -2.297715 v 43.920824 43.92084 h 2.411372 c 4.22415003,0 5.526128,1.32875 5.526128,5.63978 v 2.29771 H 17.835655 33.842946 Z M 4.3217213,165.29364 c -0.671246,-0.33227 -1.295699,-0.92029 -1.653646,-1.55717 l -0.575128,-1.0233 v -32.604 -32.603984 l 0.560357,-0.997022 c 0.308197,-0.548362 1.009017,-1.249182 1.557379,-1.557377 l 0.997021,-0.560358 h 40.5414897 40.54149 l 1.02819,0.577874 c 0.65529,0.368292 1.22011,0.974341 1.55738,1.671036 0.52039,1.074981 0.52919,1.633435 0.52919,33.583491 v 32.49034 l -0.57787,1.02818 c -0.3683,0.65529 -0.97435,1.22012 -1.67104,1.55738 -1.07853,0.52211 -1.6331,0.52919 -41.42473,0.52898 -39.9170107,-2e-4 -40.3426507,-0.006 -41.4100827,-0.53407 z M 37.912344,147.43938 c -4.311598,-5.74807 -7.928762,-10.45104 -8.038148,-10.45104 -0.109387,0 -3.72655,4.70297 -8.038145,10.45104 l -7.839259,10.45104 h 15.877404 15.877408 z m 37.73477,10.38302 c 0,-0.0374 -3.13439,-3.20072 -6.9653,-7.02959 l -6.96529,-6.96158 -4.47794,4.94821 c -2.46286,2.72151 -4.4468,5.05549 -4.40875,5.18663 0.0381,0.13113 0.68982,1.06776 1.44836,2.08139 l 1.37917,1.84296 h 9.99488 c 5.49717,0 9.99487,-0.0306 9.99487,-0.068 z m 5.82083,-30.62364 V 102.32793 H 45.749194 10.030447 v 23.6802 c 0,13.02412 0.04532,23.68021 0.100711,23.68021 0.05539,0 3.921307,-5.09591 8.590928,-11.32425 8.878955,-11.84275 9.22648,-12.22367 11.15211,-12.22367 1.90279,0 2.326962,0.45523 10.094638,10.83369 4.09013,5.46486 7.52651,10.03552 7.63639,10.15704 0.10989,0.12151 2.72901,-2.55739 5.82028,-5.95312 3.09126,-3.39574 5.99222,-6.37743 6.44656,-6.62599 1.09759,-0.60047 2.34942,-0.5874 3.54861,0.037 0.5399,0.28114 4.79095,4.32926 9.44676,8.99583 4.65582,4.66657 8.49558,8.48467 8.53281,8.48467 0.0372,0 0.0677,-11.19187 0.0677,-24.87083 z m -30.62167,2.50253 c -6.04107,-1.62693 -9.87231,-7.42348 -8.84936,-13.38882 1.10558,-6.44728 7.25444,-10.88408 13.58058,-9.79927 5.05005,0.86599 8.93496,4.7607 9.80404,9.82874 1.40921,8.21787 -6.5304,15.51516 -14.53526,13.35935 z m 4.69948,-8.06234 c 2.81686,-1.43706 2.71405,-5.63618 -0.17151,-7.00547 -2.76371,-1.31146 -5.93157,0.94403 -5.58942,3.97961 0.3227,2.86299 3.15952,4.353 5.76093,3.02586 z M -6.1091359,74.282096 v -3.968749 h -3.9687501 -3.968749 v 3.968749 3.96875 h 3.968749 3.9687501 z m 55.8270799,0 v -3.968749 h -3.96875 -3.96875 v 3.968749 3.96875 h 3.96875 3.96875 z m 55.827086,0 v -3.968749 h -3.96875 -3.968755 v 3.968749 3.96875 h 3.968755 3.96875 z"
       id="path854" />
  </g>
</svg>
