<svg xml:space="preserve" width="88.969" height="113.428" sodipodi:docname="so.svg" inkscape:version="1.1.1 (3bf5ae0d25, 2021-09-20)" xmlns:inkscape="https://www.inkscape.org/namespaces/inkscape" xmlns:sodipodi="https://sodipodi.sourceforge.net/DTD/sodipodi-0.dtd" xmlns="https://www.w3.org/2000/svg"><sodipodi:namedview pagecolor="#ffffff" bordercolor="#666666" borderopacity="1" inkscape:pageshadow="2" inkscape:pageopacity="0" inkscape:pagecheckerboard="0" showgrid="false" inkscape:zoom="7.926" inkscape:cx="44.475" inkscape:cy="56.714" inkscape:window-width="1852" inkscape:window-height="1016" inkscape:window-x="0" inkscape:window-y="0" inkscape:window-maximized="1" inkscape:current-layer="g8"/><g inkscape:groupmode="layer" inkscape:label="logo_stackoverflow"><path d="m47.457 54.453-32.566-7.898 1.578-6.512 32.57 7.898-1.582 6.512M49.641 46.66 19.797 31.414l3.051-5.969 29.843 15.246-3.05 5.969M54.238 38.59 29 16.539l4.41-5.047 25.238 22.051-4.41 5.047M61.18 31.492 42.359 3.766 47.906 0l18.821 27.73-5.547 3.762M46.938 62.602l-33.465-1.829.367-6.691 33.461 1.828-.363 6.692" style="fill:#1c4177;fill-opacity:.878431;fill-rule:nonzero;stroke:none" transform="matrix(1.33333 0 0 1.33333 0 0)"/><path d="M53.875 78.367V50.598h6.695l.004 34.472H0v-34.5h6.703v27.797h47.172" style="fill:#1c4177;fill-opacity:.878431;fill-rule:nonzero;stroke:none" transform="matrix(1.33333 0 0 1.33333 0 0)"/><path d="M13.379 64.988h33.742v6.703H13.379z" style="fill:#1c4177;fill-opacity:.878431;fill-rule:nonzero;stroke:none" transform="matrix(1.33333 0 0 1.33333 0 0)"/></g></svg>