<?xml version="1.0" encoding="UTF-8" standalone="no"?>
<svg
   width="223.57001"
   height="223.56671"
   viewBox="0 0 223.57 223.56671"
   version="1.1"
   xml:space="preserve"
   style="clip-rule:evenodd;fill-rule:evenodd;stroke-linejoin:round;stroke-miterlimit:2"
   id="svg8"
   sodipodi:docname="linkedin_new.svg"
   inkscape:version="1.1.1 (3bf5ae0d25, 2021-09-20)"
   xmlns:inkscape="http://www.inkscape.org/namespaces/inkscape"
   xmlns:sodipodi="http://sodipodi.sourceforge.net/DTD/sodipodi-0.dtd"
   xmlns="http://www.w3.org/2000/svg"
   xmlns:svg="http://www.w3.org/2000/svg"><defs
   id="defs12" /><sodipodi:namedview
   id="namedview10"
   pagecolor="#ffffff"
   bordercolor="#666666"
   borderopacity="1.0"
   inkscape:pageshadow="2"
   inkscape:pageopacity="0.0"
   inkscape:pagecheckerboard="0"
   showgrid="false"
   fit-margin-top="0"
   fit-margin-left="0"
   fit-margin-right="0"
   fit-margin-bottom="0"
   inkscape:zoom="1.4850332"
   inkscape:cx="1.683464"
   inkscape:cy="134.34043"
   inkscape:window-width="1852"
   inkscape:window-height="1016"
   inkscape:window-x="0"
   inkscape:window-y="0"
   inkscape:window-maximized="1"
   inkscape:current-layer="svg8" />
    <g
   transform="translate(-797.13,-287.42558)"
   id="g6">
        
        <path
   d="m 987.626,477.92 h -33.127 v -51.878 c 0,-12.371 -0.221,-28.296 -17.229,-28.296 -17.254,0 -19.894,13.478 -19.894,27.395 v 52.775 H 884.25 V 371.234 h 31.801 v 14.579 h 0.446 c 6.475,-11.071 18.559,-17.708 31.377,-17.232 33.575,0 39.766,22.084 39.766,50.815 z M 846.872,356.651 h -0.004 c -10.546,0 -19.224,-8.677 -19.224,-19.223 0,-10.546 8.678,-19.224 19.224,-19.224 10.545,0 19.222,8.676 19.224,19.22 v 0.004 c 0,10.544 -8.676,19.222 -19.22,19.223 M 863.435,477.92 H 830.274 V 371.234 h 33.161 z M 1004.14,287.441 H 813.627 c -8.943,-0.101 -16.388,7.171 -16.497,16.114 v 191.304 c 0.105,8.948 7.549,16.228 16.497,16.132 h 190.513 c 8.97,0.113 16.44,-7.166 16.56,-16.132 V 303.542 c -0.12,-8.962 -7.6,-16.233 -16.56,-16.115"
   style="fill:#000000;fill-rule:nonzero;fill-opacity:1"
   id="path4"
   sodipodi:nodetypes="ccsssccccccccccsssssccccccccccccccc" />
    </g>
</svg>
