<?xml version="1.0" encoding="UTF-8" standalone="no"?>
<!-- Generator: Adobe Illustrator 19.1.0, SVG Export Plug-In . SVG Version: 6.00 Build 0)  -->

<svg
   version="1.1"
   id="Layer_1"
   x="0px"
   y="0px"
   viewBox="0 0 256 256"
   style="enable-background:new 0 0 256 256;"
   xml:space="preserve"
   sodipodi:docname="orcid_new.svg"
   inkscape:version="1.1.1 (3bf5ae0d25, 2021-09-20)"
   xmlns:inkscape="http://www.inkscape.org/namespaces/inkscape"
   xmlns:sodipodi="http://sodipodi.sourceforge.net/DTD/sodipodi-0.dtd"
   xmlns="http://www.w3.org/2000/svg"
   xmlns:svg="http://www.w3.org/2000/svg"><defs
   id="defs17">
	
	
	
</defs><sodipodi:namedview
   id="namedview15"
   pagecolor="#ffffff"
   bordercolor="#666666"
   borderopacity="1.0"
   inkscape:pageshadow="2"
   inkscape:pageopacity="0.0"
   inkscape:pagecheckerboard="0"
   showgrid="false"
   inkscape:zoom="1.8925947"
   inkscape:cx="196.81974"
   inkscape:cy="167.75911"
   inkscape:window-width="1852"
   inkscape:window-height="1016"
   inkscape:window-x="0"
   inkscape:window-y="0"
   inkscape:window-maximized="1"
   inkscape:current-layer="Layer_1" />
<style
   type="text/css"
   id="style2">
	.st0{fill:#A6CE39;}
	.st1{fill:#FFFFFF;}
</style>
<path
   id="path951"
   class="st0"
   d="M 128 0 C 57.3 0 0 57.3 0 128 C 0 198.7 57.3 256 128 256 C 198.7 256 256 198.7 256 128 C 256 57.3 198.7 0 128 0 z M 78.599609 46.699219 C 84.199609 46.699219 88.699219 51.300781 88.699219 56.800781 C 88.699219 62.300781 84.199609 66.900391 78.599609 66.900391 C 72.999609 66.900391 68.5 62.300781 68.5 56.800781 C 68.5 51.200781 72.999609 46.699219 78.599609 46.699219 z M 70.900391 79.099609 L 86.300781 79.099609 L 86.300781 127.5 L 86.300781 186.19922 L 70.900391 186.19922 L 70.900391 79.099609 z M 108.90039 79.099609 L 150.5 79.099609 C 190.1 79.099609 207.5 107.39922 207.5 132.69922 C 207.5 160.19922 185.99922 186.30078 150.69922 186.30078 L 108.90039 186.30078 L 108.90039 79.099609 z M 124.30078 93 L 124.30078 172.40039 L 148.80078 172.40039 C 183.70078 172.40039 191.69922 145.89922 191.69922 132.69922 C 191.69922 111.19922 178 93 148 93 L 124.30078 93 z "
   style="fill:#000000;fill-opacity:1" />

</svg>
