<svg width="72" height="72" sodipodi:docname="orcid.svg" inkscape:version="1.1.1 (3bf5ae0d25, 2021-09-20)" xmlns:inkscape="https://www.inkscape.org/namespaces/inkscape" xmlns:sodipodi="https://sodipodi.sourceforge.net/DTD/sodipodi-0.dtd" xmlns="https://www.w3.org/2000/svg"><sodipodi:namedview pagecolor="#ffffff" bordercolor="#666666" borderopacity="1" inkscape:pageshadow="2" inkscape:pageopacity="0" inkscape:pagecheckerboard="0" showgrid="false" inkscape:zoom="8.045" inkscape:cx="38.469" inkscape:cy="39.588" inkscape:window-width="1852" inkscape:window-height="1016" inkscape:window-x="0" inkscape:window-y="0" inkscape:window-maximized="1" inkscape:current-layer="vector_iD_icon"/><g fill-rule="nonzero" fill="none"><path style="fill:#000;fill-opacity:1" d="M36 0C16.116 0 0 16.116 0 36s16.116 36 36 36 36-16.116 36-36S55.884 0 36 0zM21.736 12.984a2.847 2.847 0 0 1 2.846 2.829c0 1.54-1.267 2.826-2.846 2.826-1.579 0-2.847-1.287-2.847-2.826a2.83 2.83 0 0 1 2.847-2.829zm-2.172 9.07h4.342v29.981h-4.342v-29.98zm10.713 0h11.73c11.166 0 16.071 7.922 16.071 15.005 0 7.698-6.063 15.004-16.016 15.004H30.277V22.055zm4.344 3.891v22.227h6.906c9.84 0 12.096-7.418 12.096-11.113 0-6.019-3.862-11.114-12.32-11.114H34.62z"/></g></svg>