<?xml version="1.0" encoding="UTF-8" standalone="no"?>
<svg
   version="1.1"
   x="0px"
   y="0px"
   width="245.8"
   height="317.08533"
   viewBox="-125 217 245.8 317.08533"
   xml:space="preserve"
   id="svg4"
   sodipodi:docname="rtd_new.svg"
   inkscape:version="1.1.1 (3bf5ae0d25, 2021-09-20)"
   xmlns:inkscape="http://www.inkscape.org/namespaces/inkscape"
   xmlns:sodipodi="http://sodipodi.sourceforge.net/DTD/sodipodi-0.dtd"
   xmlns="http://www.w3.org/2000/svg"
   xmlns:svg="http://www.w3.org/2000/svg"><defs
   id="defs8" /><sodipodi:namedview
   id="namedview6"
   pagecolor="#ffffff"
   bordercolor="#666666"
   borderopacity="1.0"
   inkscape:pageshadow="2"
   inkscape:pageopacity="0.0"
   inkscape:pagecheckerboard="0"
   showgrid="false"
   fit-margin-top="0"
   fit-margin-left="0"
   fit-margin-right="0"
   fit-margin-bottom="0"
   inkscape:zoom="2.2444444"
   inkscape:cx="122.74752"
   inkscape:cy="158.61386"
   inkscape:window-width="1920"
   inkscape:window-height="1163"
   inkscape:window-x="0"
   inkscape:window-y="0"
   inkscape:window-maximized="1"
   inkscape:current-layer="svg4" />
<path
   style="fill:#32322a"
   d="m -17.9,369.8 c -4.2,0.6 -7.1,4.4 -6.5,8.5 0.4,3 2.6,5.5 5.5,6.3 0,0 18.5,6.1 50,8.7 25.3,2.1 54,-1.8 54,-1.8 4.2,-0.1 7.5,-3.6 7.4,-7.8 -0.1,-4.2 -3.6,-7.5 -7.8,-7.4 -0.5,0 -1,0.1 -1.5,0.2 0,0 -28.1,3.5 -50.9,1.6 -30.1,-2.4 -46.5,-7.9 -46.5,-7.9 -1.2,-0.4 -2.5,-0.6 -3.7,-0.4 z m 0,-37.7 c -4.2,0.6 -7.1,4.4 -6.5,8.5 0.4,3 2.6,5.5 5.5,6.3 0,0 18.5,6.1 50,8.7 25.3,2.1 54,-1.8 54,-1.8 4.2,-0.1 7.5,-3.6 7.4,-7.8 -0.1,-4.2 -3.6,-7.5 -7.8,-7.4 -0.5,0 -1,0.1 -1.5,0.2 0,0 -28.1,3.5 -50.9,1.6 -30.1,-2.4 -46.5,-7.9 -46.5,-7.9 -1.2,-0.4 -2.5,-0.6 -3.7,-0.4 z m 0,-37.7 c -4.2,0.6 -7.1,4.4 -6.5,8.5 0.4,3 2.6,5.5 5.5,6.3 0,0 18.5,6.1 50,8.7 25.3,2.1 54,-1.8 54,-1.8 4.2,-0.1 7.5,-3.6 7.4,-7.8 -0.1,-4.2 -3.6,-7.5 -7.8,-7.4 -0.5,0 -1,0.1 -1.5,0.2 0,0 -28.1,3.5 -50.9,1.6 -30.1,-2.4 -46.5,-7.9 -46.5,-7.9 -1.2,-0.4 -2.5,-0.5 -3.7,-0.4 z m 0,-37.6 c -4.2,0.6 -7.1,4.4 -6.5,8.5 0.4,3 2.6,5.5 5.5,6.3 0,0 18.5,6.1 50,8.7 25.3,2.1 54,-1.8 54,-1.8 4.2,-0.1 7.5,-3.6 7.4,-7.8 -0.1,-4.2 -3.6,-7.5 -7.8,-7.4 -0.5,0 -1,0.1 -1.5,0.2 0,0 -28.1,3.5 -50.9,1.6 -30.1,-2.4 -46.5,-7.9 -46.5,-7.9 -1.2,-0.5 -2.5,-0.6 -3.7,-0.4 z M -70.7,217 c -39.6,0.3 -54.3,12.5 -54.3,12.5 v 295.7 c 0,0 14.4,-12.4 60.8,-10.5 46.4,1.9 55.9,18.2 112.9,19.3 57,1.1 71.3,-8.8 71.3,-8.8 l 0.8,-301.4 c 0,0 -25.6,7.3 -75.6,7.7 -49.9,0.4 -61.9,-12.7 -107.7,-14.2 -2.8,-0.2 -5.5,-0.3 -8.2,-0.3 z m 33.1,19.3 c 0,0 24,7.9 68.3,10.1 37.5,1.9 75,-3.7 75,-3.7 v 267.9 c 0,0 -19,10 -66.5,6.6 -36.8,-2.6 -77.3,-16.6 -77.3,-16.6 z m -23.1,7 c 4.2,0 7.7,3.4 7.7,7.7 0,4.2 -3.4,7.7 -7.7,7.7 0,0 -12.4,0.1 -20,0.8 -12.7,1.3 -21.4,5.9 -21.4,5.9 -3.7,2 -8.4,0.5 -10.3,-3.2 -2,-3.7 -0.5,-8.4 3.2,-10.3 0,0 0,0 0,0 0,0 11.3,-6 27,-7.5 9.1,-1 21.5,-1.1 21.5,-1.1 z m -7.4,37.8 c 4.2,-0.1 7.4,0 7.4,0 4.2,0.5 7.2,4.3 6.7,8.5 -0.4,3.5 -3.2,6.3 -6.7,6.7 0,0 -12.4,0.1 -20,0.8 -12.7,1.3 -21.4,5.9 -21.4,5.9 -3.7,2 -8.4,0.5 -10.3,-3.2 -2,-3.7 -0.5,-8.4 3.2,-10.3 0,0 11.3,-6 27,-7.5 4.6,-0.6 9.9,-0.8 14.1,-0.9 z m 7.4,37.6 c 4.2,0 7.7,3.4 7.7,7.7 0,4.3 -3.4,7.7 -7.7,7.7 0,0 -12.4,-0.1 -20,0.7 -12.7,1.3 -21.4,5.9 -21.4,5.9 -3.7,2 -8.4,0.5 -10.3,-3.2 -2,-3.7 -0.5,-8.4 3.2,-10.3 0,0 11.3,-6 27,-7.5 9.1,-1.1 21.5,-1 21.5,-1 z"
   id="path2" />
</svg>
