<?xml version="1.0" encoding="UTF-8" standalone="no"?>
<!-- Created with Inkscape (http://www.inkscape.org/) -->

<svg
   version="1.1"
   id="svg2"
   xml:space="preserve"
   width="88.969391"
   height="113.4281"
   viewBox="0 0 88.969391 113.4281"
   sodipodi:docname="so.svg"
   inkscape:version="1.1.1 (3bf5ae0d25, 2021-09-20)"
   xmlns:inkscape="http://www.inkscape.org/namespaces/inkscape"
   xmlns:sodipodi="http://sodipodi.sourceforge.net/DTD/sodipodi-0.dtd"
   xmlns="http://www.w3.org/2000/svg"
   xmlns:svg="http://www.w3.org/2000/svg"><defs
     id="defs6" /><sodipodi:namedview
     id="namedview4"
     pagecolor="#ffffff"
     bordercolor="#666666"
     borderopacity="1.0"
     inkscape:pageshadow="2"
     inkscape:pageopacity="0.0"
     inkscape:pagecheckerboard="0"
     showgrid="false"
     inkscape:zoom="7.9257256"
     inkscape:cx="44.475423"
     inkscape:cy="56.71405"
     inkscape:window-width="1852"
     inkscape:window-height="1016"
     inkscape:window-x="0"
     inkscape:window-y="0"
     inkscape:window-maximized="1"
     inkscape:current-layer="g8" /><g
     id="g8"
     inkscape:groupmode="layer"
     inkscape:label="logo_stackoverflow"
     transform="matrix(1.3333333,0,0,1.3333333,0,2.8357025e-6)"><g
       id="g10"><path
         d="m 47.457,54.453 -32.566,-7.898 1.578,-6.512 32.57,7.898 -1.582,6.512"
         style="fill:#1c4177;fill-opacity:0.878431;fill-rule:nonzero;stroke:none"
         id="path12" /><path
         d="M 49.641,46.66 19.797,31.414 22.848,25.445 52.691,40.691 49.641,46.66"
         style="fill:#1c4177;fill-opacity:0.878431;fill-rule:nonzero;stroke:none"
         id="path14" /><path
         d="M 54.238,38.59 29,16.539 l 4.41,-5.047 25.238,22.051 -4.41,5.047"
         style="fill:#1c4177;fill-opacity:0.878431;fill-rule:nonzero;stroke:none"
         id="path16" /><path
         d="M 61.18,31.492 42.359,3.766 47.906,0 66.727,27.73 61.18,31.492"
         style="fill:#1c4177;fill-opacity:0.878431;fill-rule:nonzero;stroke:none"
         id="path18" /><path
         d="M 46.938,62.602 13.473,60.773 13.84,54.082 47.301,55.91 46.938,62.602"
         style="fill:#1c4177;fill-opacity:0.878431;fill-rule:nonzero;stroke:none"
         id="path20" /><path
         d="M 53.875,78.367 V 50.598 H 60.57 L 60.574,85.07 H 0 v -34.5 h 6.703 v 27.797 h 47.172"
         style="fill:#1c4177;fill-opacity:0.878431;fill-rule:nonzero;stroke:none"
         id="path22" /><path
         d="m 13.379,64.988 h 33.742 v 6.703 H 13.379 Z"
         style="fill:#1c4177;fill-opacity:0.878431;fill-rule:nonzero;stroke:none"
         id="path24" /></g></g></svg>
